# WaveFront *.obj file (generated by Autodesk ATF)

mtllib simbot_simbot v1_wheel flap_r_2_Body1.mtl

g Body1

v -0.262000 0.227507 0.036283
v -0.257000 0.227507 0.036283
v -0.257000 0.229563 0.135899
v -0.219000 0.229563 0.135899
v -0.219000 0.229666 0.140898
v -0.262000 0.229666 0.140898
v -0.262000 0.278010 0.035241
v -0.262000 0.280169 0.139856
v -0.219000 0.280169 0.139856
v -0.219000 0.280066 0.134857
v -0.257000 0.280066 0.134857
v -0.257000 0.278010 0.035241
vt -5.231853 1.650000 0.000000
vt 4.731853 1.650000 0.000000
vt -5.231853 2.150000 0.000000
vt 5.231853 2.150000 0.000000
vt 5.231853 -2.150000 0.000000
vt 4.731853 -2.150000 0.000000
vt -10.463705 -2.525700 0.000000
vt -0.000000 -2.525700 0.000000
vt -10.463705 2.525700 0.000000
vt -0.000000 2.525700 0.000000
vt -4.300000 -2.525700 0.000000
vt -0.000000 -2.525700 0.000000
vt -4.300000 2.525700 0.000000
vt -0.000000 2.525700 0.000000
vt -0.500000 -2.525700 0.000000
vt 0.000000 -2.525700 0.000000
vt -0.500000 2.525700 0.000000
vt 0.000000 2.525700 0.000000
vt -3.800000 -2.525700 0.000000
vt 0.000000 -2.525700 0.000000
vt -3.800000 2.525700 0.000000
vt -0.000000 2.525700 0.000000
vt -9.963705 -2.525700 0.000000
vt -0.000000 -2.525700 0.000000
vt -9.963705 2.525700 0.000000
vt -0.000000 2.525700 0.000000
vt -0.500000 -2.525700 0.000000
vt 0.000000 -2.525700 0.000000
vt -0.500000 2.525700 0.000000
vt -0.000000 2.525700 0.000000
vt 5.231853 1.650000 0.000000
vt 5.231853 2.150000 0.000000
vt -4.731853 1.650000 0.000000
vt -5.231853 2.150000 0.000000
vt -5.231853 -2.150000 0.000000
vt -4.731853 -2.150000 0.000000
vn -0.000000 -99.978712 2.063300
vn -0.000000 -99.978712 2.063300
vn -0.000000 -99.978712 2.063300
vn -0.000000 -99.978712 2.063300
vn -0.000000 -99.978712 2.063300
vn -0.000000 -99.978712 2.063300
vn -100.000000 0.000000 0.000000
vn -100.000000 0.000000 0.000000
vn -100.000000 0.000000 0.000000
vn -100.000000 0.000000 0.000000
vn 0.000000 2.063300 99.978712
vn 0.000000 2.063300 99.978712
vn 0.000000 2.063300 99.978712
vn 0.000000 2.063300 99.978712
vn 100.000000 0.000000 0.000000
vn 100.000000 0.000000 0.000000
vn 100.000000 0.000000 0.000000
vn 100.000000 0.000000 0.000000
vn 0.000000 -2.063300 -99.978712
vn 0.000000 -2.063300 -99.978712
vn 0.000000 -2.063300 -99.978712
vn 0.000000 -2.063300 -99.978712
vn 100.000000 0.000000 0.000000
vn 100.000000 0.000000 0.000000
vn 100.000000 0.000000 0.000000
vn 100.000000 0.000000 0.000000
vn 0.000000 -2.063300 -99.978712
vn 0.000000 -2.063300 -99.978712
vn 0.000000 -2.063300 -99.978712
vn 0.000000 -2.063300 -99.978712
vn 0.000000 99.978712 -2.063300
vn 0.000000 99.978712 -2.063300
vn 0.000000 99.978712 -2.063300
vn 0.000000 99.978712 -2.063300
vn 0.000000 99.978712 -2.063300
vn 0.000000 99.978712 -2.063300
usemtl Steel_-_Satin
f 2/1/1 3/2/2 1/3/3
f 1/3/3 3/2/2 6/4/4
f 6/4/4 3/2/2 5/5/5
f 5/5/5 3/2/2 4/6/6
f 1/7/7 6/8/8 7/9/9
f 7/9/9 6/8/8 8/10/10
f 6/11/11 5/12/12 8/13/13
f 8/13/13 5/12/12 9/14/14
f 5/15/15 4/16/16 9/17/17
f 9/17/17 4/16/16 10/18/18
f 4/19/19 3/20/20 10/21/21
f 10/21/21 3/20/20 11/22/22
f 3/23/23 2/24/24 11/25/25
f 11/25/25 2/24/24 12/26/26
f 2/27/27 1/28/28 12/29/29
f 12/29/29 1/28/28 7/30/30
f 12/31/31 7/32/32 11/33/33
f 11/33/33 7/32/32 8/34/34
f 11/33/33 8/34/34 9/35/35
f 9/35/35 10/36/36 11/33/33
# 12 vertices
# 36 texture params
# 36 normals
# 20 facets

# 1 groups
